<svg width="180" height="33" viewBox="0 0 180 33" fill="none" xmlns="http://www.w3.org/2000/svg">
<path d="M15.5 26.2179L25.079 32.5L22.537 20.66L31 12.6937L19.8555 11.6663L15.5 0.5L11.1445 11.6663L0 12.6937L8.463 20.66L5.921 32.5L15.5 26.2179Z" fill="#FAAF00"/>
<path d="M52.5 26.2179L62.079 32.5L59.537 20.66L68 12.6937L56.8555 11.6663L52.5 0.5L48.1445 11.6663L37 12.6937L45.463 20.66L42.921 32.5L52.5 26.2179Z" fill="#FAAF00"/>
<path d="M90 26.2179L99.888 32.5L97.264 20.66L106 12.6937L94.496 11.6663L90 0.5L85.504 11.6663L74 12.6937L82.736 20.66L80.112 32.5L90 26.2179Z" fill="#FAAF00"/>
<path d="M127.5 26.2179L137.079 32.5L134.537 20.66L143 12.6937L131.855 11.6663L127.5 0.5L123.144 11.6663L112 12.6937L120.463 20.66L117.921 32.5L127.5 26.2179Z" fill="#FAAF00"/>
<path d="M164.5 26.2179L174.079 32.5L171.537 20.66L180 12.6937L168.855 11.6663L164.5 0.5L160.144 11.6663L149 12.6937L157.463 20.66L154.921 32.5L164.5 26.2179Z" fill="#FAAF00"/>
</svg>
