<svg width="25" height="25" viewBox="0 0 25 25" fill="none" xmlns="http://www.w3.org/2000/svg">
<path d="M15.5 22.5V18.5C15.6392 17.2473 15.28 15.9901 14.5 15C17.5 15 20.5 13 20.5 9.5C20.58 8.25 20.23 7.02 19.5 6C19.78 4.85 19.78 3.65 19.5 2.5C19.5 2.5 18.5 2.5 16.5 4C13.86 3.5 11.14 3.5 8.50004 4C6.50004 2.5 5.50004 2.5 5.50004 2.5C5.20004 3.65 5.20004 4.85 5.50004 6C4.77191 7.01588 4.41851 8.25279 4.50004 9.5C4.50004 13 7.50004 15 10.5 15C10.11 15.49 9.82004 16.05 9.65004 16.65C9.48004 17.25 9.43004 17.88 9.50004 18.5V22.5" stroke="black" stroke-width="2" stroke-linecap="round" stroke-linejoin="round"/>
<path d="M9.5 18.5C4.99 20.5 4.5 16.5 2.5 16.5" stroke="black" stroke-width="2" stroke-linecap="round" stroke-linejoin="round"/>
</svg>
