<svg width="50" height="50" viewBox="0 0 50 50" fill="none" xmlns="http://www.w3.org/2000/svg">
<path fill-rule="evenodd" clip-rule="evenodd" d="M25 35.5769C29.9963 35.5769 34.2187 32.3353 35.5893 27.8846H39.4231V23.5577H35.9902C35.379 18.1491 30.6917 13.9423 25 13.9423C18.893 13.9423 13.9423 18.7854 13.9423 24.7596C13.9423 30.7338 18.893 35.5769 25 35.5769ZM25 31.7308C29.063 31.7308 32.2115 28.5304 32.2115 24.7596C32.2115 20.9888 29.063 17.7885 25 17.7885C20.937 17.7885 17.7885 20.9888 17.7885 24.7596C17.7885 28.5304 20.937 31.7308 25 31.7308Z" fill="#1A1A1A"/>
<path fill-rule="evenodd" clip-rule="evenodd" d="M50 25C50 38.8071 38.8071 50 25 50C11.1929 50 0 38.8071 0 25C0 11.1929 11.1929 0 25 0C38.8071 0 50 11.1929 50 25ZM46.1538 25C46.1538 36.6829 36.6829 46.1538 25 46.1538C13.3171 46.1538 3.84615 36.6829 3.84615 25C3.84615 13.3171 13.3171 3.84615 25 3.84615C36.6829 3.84615 46.1538 13.3171 46.1538 25Z" fill="#1A1A1A"/>
</svg>
