<svg width="110" height="108" viewBox="0 0 110 108" fill="none" xmlns="http://www.w3.org/2000/svg">
<path d="M0 16C0 7.16344 7.16344 0 16 0H94C102.837 0 110 7.16344 110 16V108H0V16Z" fill="#28A900" fill-opacity="0.72"/>
<path d="M72.6952 36.2688C70.3926 33.9553 67.6505 32.1212 64.6286 30.8732C61.6068 29.6253 58.3657 28.9885 55.0942 29.0001C41.3856 29.0001 30.2135 40.1188 30.2009 53.7688C30.2009 58.1407 31.3498 62.3938 33.519 66.1595L30 79.0001L43.1969 75.5563C46.8477 77.5342 50.9377 78.5709 55.0942 78.572H55.1067C68.8184 78.572 79.9874 67.4532 80 53.7907C80.0031 50.5346 79.359 47.31 78.1048 44.3028C76.8506 41.2956 75.0142 38.5652 72.6952 36.2688ZM55.0942 74.3782C51.3869 74.3794 47.7477 73.3863 44.5593 71.5032L43.8059 71.0532L35.9769 73.097L38.0676 65.4938L37.5778 64.7095C35.5054 61.4292 34.4094 57.6314 34.4167 53.7563C34.4167 42.4251 43.6991 33.1813 55.1067 33.1813C57.8244 33.1765 60.5161 33.7072 63.0268 34.7429C65.5375 35.7785 67.8174 37.2987 69.735 39.2157C71.6594 41.1252 73.185 43.3952 74.2238 45.8946C75.2625 48.3939 75.7939 51.0733 75.7873 53.7782C75.7747 65.1501 66.4923 74.3782 55.0942 74.3782ZM66.4421 58.9595C65.8237 58.6501 62.7693 57.1532 62.1949 56.9407C61.6235 56.7376 61.206 56.6313 60.798 57.2501C60.3805 57.8657 59.1876 59.2688 58.8297 59.672C58.4719 60.0876 58.1014 60.1345 57.4799 59.8282C56.8615 59.5157 54.8556 58.8657 52.4824 56.7501C50.6303 55.1095 49.3904 53.0782 49.02 52.4626C48.6621 51.8438 48.9854 51.5126 49.2962 51.2032C49.5693 50.9282 49.9146 50.4782 50.2254 50.122C50.5393 49.7657 50.6429 49.5032 50.8469 49.0907C51.051 48.672 50.9537 48.3157 50.7998 48.0063C50.6429 47.697 49.4029 44.6438 48.8787 43.4126C48.3764 42.197 47.8648 42.3657 47.4818 42.3501C47.1239 42.3282 46.7064 42.3282 46.2889 42.3282C45.9736 42.336 45.6634 42.4086 45.3776 42.5414C45.0918 42.6743 44.8367 42.8644 44.6283 43.1001C44.057 43.7188 42.4592 45.2157 42.4592 48.2688C42.4592 51.322 44.688 54.2563 45.0019 54.672C45.3095 55.0876 49.3778 61.3345 55.6215 64.022C57.0969 64.6626 58.2584 65.0407 59.1656 65.3282C60.6567 65.8032 62.0034 65.7313 63.077 65.5782C64.2698 65.397 66.7529 64.0782 67.2771 62.6313C67.7919 61.1813 67.7919 59.9438 67.635 59.6845C67.4812 59.422 67.0637 59.2688 66.4421 58.9595Z" fill="#F2F2F2"/>
</svg>
